<?xml version="1.0" encoding="UTF-8"?>
<svg width="481px" height="1024px" viewBox="0 0 481 1024" version="1.1" xmlns="http://www.w3.org/2000/svg" xmlns:xlink="http://www.w3.org/1999/xlink">
    <!-- Generator: Sketch 49.3 (51167) - http://www.bohemiancoding.com/sketch -->
    <title>Geometric thing</title>
    <desc>Created with Sketch.</desc>
    <defs>
        <filter x="-3.3%" y="-1.4%" width="106.6%" height="103.1%" filterUnits="objectBoundingBox" id="filter-1">
            <feOffset dx="0" dy="2" in="SourceAlpha" result="shadowOffsetOuter1"></feOffset>
            <feGaussianBlur stdDeviation="5" in="shadowOffsetOuter1" result="shadowBlurOuter1"></feGaussianBlur>
            <feColorMatrix values="0 0 0 0 0   0 0 0 0 0   0 0 0 0 0  0 0 0 0.5 0" type="matrix" in="shadowBlurOuter1" result="shadowMatrixOuter1"></feColorMatrix>
            <feMerge>
                <feMergeNode in="shadowMatrixOuter1"></feMergeNode>
                <feMergeNode in="SourceGraphic"></feMergeNode>
            </feMerge>
        </filter>
    </defs>
    <g id="Page-1" stroke="none" stroke-width="1" fill="none" fill-rule="evenodd">
        <g id="index" transform="translate(-543.000000, 0.000000)">
            <g id="Geometric-thing" filter="url(#filter-1)" transform="translate(552.000000, 0.000000)">
                <polygon id="Path" fill="#F11F65" points="0 0 343 1024 472 1024 472 0"></polygon>
                <polygon id="Path-2" fill="#DC1F5E" points="345 1024 472 885 472 1024"></polygon>
                <polygon id="Path-3" fill="#F43D7A" points="259 776 483 876 343 1026"></polygon>
                <polygon id="Path-4" fill="#D60A4E" points="236 734 472 702 472 872 250.619469 777"></polygon>
                <polygon id="Path-5" fill="#F11F65" points="236.253731 735 472 703 472 523 206 615"></polygon>
                <polygon id="Path-6" fill="#CE0A4C" points="341 569 407.727273 152.81382 483 46 483 525.654511"></polygon>
                <polygon id="Path-7" fill="#D4245F" points="91 269 374 374 341.57971 569 207 616"></polygon>
                <polygon id="Path-8" fill="#C3104C" points="42 127 408 152 374 376 91 270"></polygon>
                <polygon id="Path-9" fill="#D71B5A" points="409 152 196 138 261 0 472 0 472 62"></polygon>
                <polygon id="Path-10" fill="#B91D51" points="284 589 394 714 473 703 473 526"></polygon>
            </g>
        </g>
    </g>
</svg>